ISO-10303-21;
HEADER;
/* Generated by software containing ST-Developer
 * from STEP Tools, Inc. (www.steptools.com) 
 */

FILE_DESCRIPTION(
/* description */ (''),
/* implementation_level */ '2;1');

FILE_NAME(
/* name */ 'Mini pocket hermes v2 case part 2.step',
/* time_stamp */ '2026-05-17T12:07:37+10:00',
/* author */ (''),
/* organization */ (''),
/* preprocessor_version */ 'ST-DEVELOPER v20.1',
/* originating_system */ 'Autodesk Translation Framework v15.8.0.0',
/* authorisation */ '');

FILE_SCHEMA (('AUTOMOTIVE_DESIGN { 1 0 10303 214 3 1 1 }'));
ENDSEC;

DATA;
#10=MECHANICAL_DESIGN_GEOMETRIC_PRESENTATION_REPRESENTATION('',(#13),#743);
#11=SHAPE_REPRESENTATION_RELATIONSHIP('SRR','None',#749,#12);
#12=ADVANCED_BREP_SHAPE_REPRESENTATION('',(#14),#742);
#13=STYLED_ITEM('',(#758),#14);
#14=MANIFOLD_SOLID_BREP('Body4',#439);
#15=FACE_BOUND('',#78,.T.);
#16=FACE_BOUND('',#79,.T.);
#17=FACE_BOUND('',#80,.T.);
#18=FACE_BOUND('',#81,.T.);
#19=FACE_BOUND('',#82,.T.);
#20=FACE_BOUND('',#84,.T.);
#21=FACE_BOUND('',#85,.T.);
#22=FACE_BOUND('',#86,.T.);
#23=FACE_BOUND('',#87,.T.);
#24=FACE_BOUND('',#88,.T.);
#25=PLANE('',#453);
#26=PLANE('',#457);
#27=PLANE('',#461);
#28=PLANE('',#465);
#29=PLANE('',#472);
#30=PLANE('',#476);
#31=PLANE('',#480);
#32=PLANE('',#484);
#33=PLANE('',#485);
#34=PLANE('',#486);
#35=FACE_OUTER_BOUND('',#57,.T.);
#36=FACE_OUTER_BOUND('',#58,.T.);
#37=FACE_OUTER_BOUND('',#59,.T.);
#38=FACE_OUTER_BOUND('',#60,.T.);
#39=FACE_OUTER_BOUND('',#61,.T.);
#40=FACE_OUTER_BOUND('',#62,.T.);
#41=FACE_OUTER_BOUND('',#63,.T.);
#42=FACE_OUTER_BOUND('',#64,.T.);
#43=FACE_OUTER_BOUND('',#65,.T.);
#44=FACE_OUTER_BOUND('',#66,.T.);
#45=FACE_OUTER_BOUND('',#67,.T.);
#46=FACE_OUTER_BOUND('',#68,.T.);
#47=FACE_OUTER_BOUND('',#69,.T.);
#48=FACE_OUTER_BOUND('',#70,.T.);
#49=FACE_OUTER_BOUND('',#71,.T.);
#50=FACE_OUTER_BOUND('',#72,.T.);
#51=FACE_OUTER_BOUND('',#73,.T.);
#52=FACE_OUTER_BOUND('',#74,.T.);
#53=FACE_OUTER_BOUND('',#75,.T.);
#54=FACE_OUTER_BOUND('',#76,.T.);
#55=FACE_OUTER_BOUND('',#77,.T.);
#56=FACE_OUTER_BOUND('',#83,.T.);
#57=EDGE_LOOP('',(#285,#286,#287,#288));
#58=EDGE_LOOP('',(#289,#290,#291,#292));
#59=EDGE_LOOP('',(#293,#294,#295,#296));
#60=EDGE_LOOP('',(#297,#298,#299,#300));
#61=EDGE_LOOP('',(#301,#302,#303,#304));
#62=EDGE_LOOP('',(#305,#306,#307,#308));
#63=EDGE_LOOP('',(#309,#310,#311,#312));
#64=EDGE_LOOP('',(#313,#314,#315,#316));
#65=EDGE_LOOP('',(#317,#318,#319,#320));
#66=EDGE_LOOP('',(#321,#322,#323,#324));
#67=EDGE_LOOP('',(#325,#326,#327,#328));
#68=EDGE_LOOP('',(#329,#330,#331,#332));
#69=EDGE_LOOP('',(#333,#334,#335,#336));
#70=EDGE_LOOP('',(#337,#338,#339,#340));
#71=EDGE_LOOP('',(#341,#342,#343,#344));
#72=EDGE_LOOP('',(#345,#346,#347,#348));
#73=EDGE_LOOP('',(#349,#350,#351,#352));
#74=EDGE_LOOP('',(#353,#354,#355,#356));
#75=EDGE_LOOP('',(#357,#358,#359,#360));
#76=EDGE_LOOP('',(#361,#362,#363,#364));
#77=EDGE_LOOP('',(#365,#366,#367,#368,#369,#370,#371,#372));
#78=EDGE_LOOP('',(#373));
#79=EDGE_LOOP('',(#374));
#80=EDGE_LOOP('',(#375));
#81=EDGE_LOOP('',(#376));
#82=EDGE_LOOP('',(#377,#378,#379,#380,#381,#382,#383,#384));
#83=EDGE_LOOP('',(#385,#386,#387,#388,#389,#390,#391,#392));
#84=EDGE_LOOP('',(#393));
#85=EDGE_LOOP('',(#394));
#86=EDGE_LOOP('',(#395));
#87=EDGE_LOOP('',(#396));
#88=EDGE_LOOP('',(#397,#398,#399,#400,#401,#402,#403,#404));
#89=LINE('',#622,#125);
#90=LINE('',#628,#126);
#91=LINE('',#634,#127);
#92=LINE('',#641,#128);
#93=LINE('',#644,#129);
#94=LINE('',#647,#130);
#95=LINE('',#649,#131);
#96=LINE('',#650,#132);
#97=LINE('',#655,#133);
#98=LINE('',#659,#134);
#99=LINE('',#661,#135);
#100=LINE('',#662,#136);
#101=LINE('',#667,#137);
#102=LINE('',#671,#138);
#103=LINE('',#673,#139);
#104=LINE('',#674,#140);
#105=LINE('',#679,#141);
#106=LINE('',#682,#142);
#107=LINE('',#683,#143);
#108=LINE('',#688,#144);
#109=LINE('',#695,#145);
#110=LINE('',#698,#146);
#111=LINE('',#701,#147);
#112=LINE('',#703,#148);
#113=LINE('',#704,#149);
#114=LINE('',#710,#150);
#115=LINE('',#713,#151);
#116=LINE('',#715,#152);
#117=LINE('',#716,#153);
#118=LINE('',#722,#154);
#119=LINE('',#725,#155);
#120=LINE('',#727,#156);
#121=LINE('',#728,#157);
#122=LINE('',#734,#158);
#123=LINE('',#736,#159);
#124=LINE('',#737,#160);
#125=VECTOR('',#493,0.600000000000005);
#126=VECTOR('',#500,0.600000000000005);
#127=VECTOR('',#507,0.600000000000005);
#128=VECTOR('',#514,10.);
#129=VECTOR('',#517,10.);
#130=VECTOR('',#520,10.);
#131=VECTOR('',#521,10.);
#132=VECTOR('',#522,10.);
#133=VECTOR('',#527,10.);
#134=VECTOR('',#532,10.);
#135=VECTOR('',#533,10.);
#136=VECTOR('',#534,10.);
#137=VECTOR('',#539,10.);
#138=VECTOR('',#544,10.);
#139=VECTOR('',#545,10.);
#140=VECTOR('',#546,10.);
#141=VECTOR('',#551,10.);
#142=VECTOR('',#556,10.);
#143=VECTOR('',#557,10.);
#144=VECTOR('',#562,4.6614822945271);
#145=VECTOR('',#569,10.);
#146=VECTOR('',#572,10.);
#147=VECTOR('',#575,10.);
#148=VECTOR('',#576,10.);
#149=VECTOR('',#577,10.);
#150=VECTOR('',#584,10.);
#151=VECTOR('',#587,10.);
#152=VECTOR('',#588,10.);
#153=VECTOR('',#589,10.);
#154=VECTOR('',#596,10.);
#155=VECTOR('',#599,10.);
#156=VECTOR('',#600,10.);
#157=VECTOR('',#601,10.);
#158=VECTOR('',#608,10.);
#159=VECTOR('',#611,10.);
#160=VECTOR('',#612,10.);
#161=CIRCLE('',#442,0.600000000000005);
#162=CIRCLE('',#443,0.600000000000005);
#163=CIRCLE('',#445,0.600000000000005);
#164=CIRCLE('',#446,0.600000000000005);
#165=CIRCLE('',#448,0.600000000000005);
#166=CIRCLE('',#449,0.600000000000005);
#167=CIRCLE('',#451,1.5);
#168=CIRCLE('',#452,1.5);
#169=CIRCLE('',#455,1.5);
#170=CIRCLE('',#456,1.5);
#171=CIRCLE('',#459,1.5);
#172=CIRCLE('',#460,1.5);
#173=CIRCLE('',#463,1.5);
#174=CIRCLE('',#464,1.5);
#175=CIRCLE('',#467,4.6614822945271);
#176=CIRCLE('',#468,4.6614822945271);
#177=CIRCLE('',#470,4.);
#178=CIRCLE('',#471,4.);
#179=CIRCLE('',#474,4.);
#180=CIRCLE('',#475,4.);
#181=CIRCLE('',#478,6.49999999999999);
#182=CIRCLE('',#479,6.49999999999999);
#183=CIRCLE('',#482,6.49999999999999);
#184=CIRCLE('',#483,6.49999999999999);
#185=VERTEX_POINT('',#619);
#186=VERTEX_POINT('',#621);
#187=VERTEX_POINT('',#625);
#188=VERTEX_POINT('',#627);
#189=VERTEX_POINT('',#631);
#190=VERTEX_POINT('',#633);
#191=VERTEX_POINT('',#637);
#192=VERTEX_POINT('',#638);
#193=VERTEX_POINT('',#640);
#194=VERTEX_POINT('',#642);
#195=VERTEX_POINT('',#646);
#196=VERTEX_POINT('',#648);
#197=VERTEX_POINT('',#652);
#198=VERTEX_POINT('',#654);
#199=VERTEX_POINT('',#658);
#200=VERTEX_POINT('',#660);
#201=VERTEX_POINT('',#664);
#202=VERTEX_POINT('',#666);
#203=VERTEX_POINT('',#670);
#204=VERTEX_POINT('',#672);
#205=VERTEX_POINT('',#676);
#206=VERTEX_POINT('',#678);
#207=VERTEX_POINT('',#685);
#208=VERTEX_POINT('',#687);
#209=VERTEX_POINT('',#691);
#210=VERTEX_POINT('',#692);
#211=VERTEX_POINT('',#694);
#212=VERTEX_POINT('',#696);
#213=VERTEX_POINT('',#700);
#214=VERTEX_POINT('',#702);
#215=VERTEX_POINT('',#706);
#216=VERTEX_POINT('',#708);
#217=VERTEX_POINT('',#712);
#218=VERTEX_POINT('',#714);
#219=VERTEX_POINT('',#718);
#220=VERTEX_POINT('',#720);
#221=VERTEX_POINT('',#724);
#222=VERTEX_POINT('',#726);
#223=VERTEX_POINT('',#730);
#224=VERTEX_POINT('',#732);
#225=EDGE_CURVE('',#185,#185,#161,.T.);
#226=EDGE_CURVE('',#185,#186,#89,.T.);
#227=EDGE_CURVE('',#186,#186,#162,.T.);
#228=EDGE_CURVE('',#187,#187,#163,.T.);
#229=EDGE_CURVE('',#187,#188,#90,.T.);
#230=EDGE_CURVE('',#188,#188,#164,.T.);
#231=EDGE_CURVE('',#189,#189,#165,.T.);
#232=EDGE_CURVE('',#189,#190,#91,.T.);
#233=EDGE_CURVE('',#190,#190,#166,.T.);
#234=EDGE_CURVE('',#191,#192,#167,.T.);
#235=EDGE_CURVE('',#192,#193,#92,.T.);
#236=EDGE_CURVE('',#193,#194,#168,.T.);
#237=EDGE_CURVE('',#194,#191,#93,.T.);
#238=EDGE_CURVE('',#195,#192,#94,.T.);
#239=EDGE_CURVE('',#196,#195,#95,.T.);
#240=EDGE_CURVE('',#193,#196,#96,.T.);
#241=EDGE_CURVE('',#195,#197,#169,.T.);
#242=EDGE_CURVE('',#197,#198,#97,.T.);
#243=EDGE_CURVE('',#198,#196,#170,.T.);
#244=EDGE_CURVE('',#199,#197,#98,.T.);
#245=EDGE_CURVE('',#200,#199,#99,.T.);
#246=EDGE_CURVE('',#198,#200,#100,.T.);
#247=EDGE_CURVE('',#199,#201,#171,.T.);
#248=EDGE_CURVE('',#201,#202,#101,.T.);
#249=EDGE_CURVE('',#202,#200,#172,.T.);
#250=EDGE_CURVE('',#203,#201,#102,.T.);
#251=EDGE_CURVE('',#204,#203,#103,.T.);
#252=EDGE_CURVE('',#202,#204,#104,.T.);
#253=EDGE_CURVE('',#203,#205,#173,.T.);
#254=EDGE_CURVE('',#205,#206,#105,.T.);
#255=EDGE_CURVE('',#206,#204,#174,.T.);
#256=EDGE_CURVE('',#206,#194,#106,.T.);
#257=EDGE_CURVE('',#191,#205,#107,.T.);
#258=EDGE_CURVE('',#207,#207,#175,.T.);
#259=EDGE_CURVE('',#207,#208,#108,.T.);
#260=EDGE_CURVE('',#208,#208,#176,.T.);
#261=EDGE_CURVE('',#209,#210,#177,.T.);
#262=EDGE_CURVE('',#210,#211,#109,.T.);
#263=EDGE_CURVE('',#212,#211,#178,.T.);
#264=EDGE_CURVE('',#209,#212,#110,.T.);
#265=EDGE_CURVE('',#213,#209,#111,.T.);
#266=EDGE_CURVE('',#214,#212,#112,.T.);
#267=EDGE_CURVE('',#213,#214,#113,.T.);
#268=EDGE_CURVE('',#215,#213,#179,.T.);
#269=EDGE_CURVE('',#216,#214,#180,.T.);
#270=EDGE_CURVE('',#215,#216,#114,.T.);
#271=EDGE_CURVE('',#217,#215,#115,.T.);
#272=EDGE_CURVE('',#218,#216,#116,.T.);
#273=EDGE_CURVE('',#217,#218,#117,.T.);
#274=EDGE_CURVE('',#219,#217,#181,.T.);
#275=EDGE_CURVE('',#220,#218,#182,.T.);
#276=EDGE_CURVE('',#219,#220,#118,.T.);
#277=EDGE_CURVE('',#221,#219,#119,.T.);
#278=EDGE_CURVE('',#222,#220,#120,.T.);
#279=EDGE_CURVE('',#221,#222,#121,.T.);
#280=EDGE_CURVE('',#223,#221,#183,.T.);
#281=EDGE_CURVE('',#224,#222,#184,.T.);
#282=EDGE_CURVE('',#223,#224,#122,.T.);
#283=EDGE_CURVE('',#210,#223,#123,.T.);
#284=EDGE_CURVE('',#211,#224,#124,.T.);
#285=ORIENTED_EDGE('',*,*,#225,.F.);
#286=ORIENTED_EDGE('',*,*,#226,.T.);
#287=ORIENTED_EDGE('',*,*,#227,.F.);
#288=ORIENTED_EDGE('',*,*,#226,.F.);
#289=ORIENTED_EDGE('',*,*,#228,.F.);
#290=ORIENTED_EDGE('',*,*,#229,.T.);
#291=ORIENTED_EDGE('',*,*,#230,.F.);
#292=ORIENTED_EDGE('',*,*,#229,.F.);
#293=ORIENTED_EDGE('',*,*,#231,.F.);
#294=ORIENTED_EDGE('',*,*,#232,.T.);
#295=ORIENTED_EDGE('',*,*,#233,.F.);
#296=ORIENTED_EDGE('',*,*,#232,.F.);
#297=ORIENTED_EDGE('',*,*,#234,.T.);
#298=ORIENTED_EDGE('',*,*,#235,.T.);
#299=ORIENTED_EDGE('',*,*,#236,.T.);
#300=ORIENTED_EDGE('',*,*,#237,.T.);
#301=ORIENTED_EDGE('',*,*,#235,.F.);
#302=ORIENTED_EDGE('',*,*,#238,.F.);
#303=ORIENTED_EDGE('',*,*,#239,.F.);
#304=ORIENTED_EDGE('',*,*,#240,.F.);
#305=ORIENTED_EDGE('',*,*,#241,.T.);
#306=ORIENTED_EDGE('',*,*,#242,.T.);
#307=ORIENTED_EDGE('',*,*,#243,.T.);
#308=ORIENTED_EDGE('',*,*,#239,.T.);
#309=ORIENTED_EDGE('',*,*,#242,.F.);
#310=ORIENTED_EDGE('',*,*,#244,.F.);
#311=ORIENTED_EDGE('',*,*,#245,.F.);
#312=ORIENTED_EDGE('',*,*,#246,.F.);
#313=ORIENTED_EDGE('',*,*,#247,.T.);
#314=ORIENTED_EDGE('',*,*,#248,.T.);
#315=ORIENTED_EDGE('',*,*,#249,.T.);
#316=ORIENTED_EDGE('',*,*,#245,.T.);
#317=ORIENTED_EDGE('',*,*,#248,.F.);
#318=ORIENTED_EDGE('',*,*,#250,.F.);
#319=ORIENTED_EDGE('',*,*,#251,.F.);
#320=ORIENTED_EDGE('',*,*,#252,.F.);
#321=ORIENTED_EDGE('',*,*,#253,.T.);
#322=ORIENTED_EDGE('',*,*,#254,.T.);
#323=ORIENTED_EDGE('',*,*,#255,.T.);
#324=ORIENTED_EDGE('',*,*,#251,.T.);
#325=ORIENTED_EDGE('',*,*,#237,.F.);
#326=ORIENTED_EDGE('',*,*,#256,.F.);
#327=ORIENTED_EDGE('',*,*,#254,.F.);
#328=ORIENTED_EDGE('',*,*,#257,.F.);
#329=ORIENTED_EDGE('',*,*,#258,.F.);
#330=ORIENTED_EDGE('',*,*,#259,.T.);
#331=ORIENTED_EDGE('',*,*,#260,.F.);
#332=ORIENTED_EDGE('',*,*,#259,.F.);
#333=ORIENTED_EDGE('',*,*,#261,.T.);
#334=ORIENTED_EDGE('',*,*,#262,.T.);
#335=ORIENTED_EDGE('',*,*,#263,.F.);
#336=ORIENTED_EDGE('',*,*,#264,.F.);
#337=ORIENTED_EDGE('',*,*,#265,.T.);
#338=ORIENTED_EDGE('',*,*,#264,.T.);
#339=ORIENTED_EDGE('',*,*,#266,.F.);
#340=ORIENTED_EDGE('',*,*,#267,.F.);
#341=ORIENTED_EDGE('',*,*,#268,.T.);
#342=ORIENTED_EDGE('',*,*,#267,.T.);
#343=ORIENTED_EDGE('',*,*,#269,.F.);
#344=ORIENTED_EDGE('',*,*,#270,.F.);
#345=ORIENTED_EDGE('',*,*,#271,.T.);
#346=ORIENTED_EDGE('',*,*,#270,.T.);
#347=ORIENTED_EDGE('',*,*,#272,.F.);
#348=ORIENTED_EDGE('',*,*,#273,.F.);
#349=ORIENTED_EDGE('',*,*,#274,.T.);
#350=ORIENTED_EDGE('',*,*,#273,.T.);
#351=ORIENTED_EDGE('',*,*,#275,.F.);
#352=ORIENTED_EDGE('',*,*,#276,.F.);
#353=ORIENTED_EDGE('',*,*,#277,.T.);
#354=ORIENTED_EDGE('',*,*,#276,.T.);
#355=ORIENTED_EDGE('',*,*,#278,.F.);
#356=ORIENTED_EDGE('',*,*,#279,.F.);
#357=ORIENTED_EDGE('',*,*,#280,.T.);
#358=ORIENTED_EDGE('',*,*,#279,.T.);
#359=ORIENTED_EDGE('',*,*,#281,.F.);
#360=ORIENTED_EDGE('',*,*,#282,.F.);
#361=ORIENTED_EDGE('',*,*,#283,.T.);
#362=ORIENTED_EDGE('',*,*,#282,.T.);
#363=ORIENTED_EDGE('',*,*,#284,.F.);
#364=ORIENTED_EDGE('',*,*,#262,.F.);
#365=ORIENTED_EDGE('',*,*,#284,.T.);
#366=ORIENTED_EDGE('',*,*,#281,.T.);
#367=ORIENTED_EDGE('',*,*,#278,.T.);
#368=ORIENTED_EDGE('',*,*,#275,.T.);
#369=ORIENTED_EDGE('',*,*,#272,.T.);
#370=ORIENTED_EDGE('',*,*,#269,.T.);
#371=ORIENTED_EDGE('',*,*,#266,.T.);
#372=ORIENTED_EDGE('',*,*,#263,.T.);
#373=ORIENTED_EDGE('',*,*,#225,.T.);
#374=ORIENTED_EDGE('',*,*,#228,.T.);
#375=ORIENTED_EDGE('',*,*,#231,.T.);
#376=ORIENTED_EDGE('',*,*,#258,.T.);
#377=ORIENTED_EDGE('',*,*,#244,.T.);
#378=ORIENTED_EDGE('',*,*,#241,.F.);
#379=ORIENTED_EDGE('',*,*,#238,.T.);
#380=ORIENTED_EDGE('',*,*,#234,.F.);
#381=ORIENTED_EDGE('',*,*,#257,.T.);
#382=ORIENTED_EDGE('',*,*,#253,.F.);
#383=ORIENTED_EDGE('',*,*,#250,.T.);
#384=ORIENTED_EDGE('',*,*,#247,.F.);
#385=ORIENTED_EDGE('',*,*,#283,.F.);
#386=ORIENTED_EDGE('',*,*,#261,.F.);
#387=ORIENTED_EDGE('',*,*,#265,.F.);
#388=ORIENTED_EDGE('',*,*,#268,.F.);
#389=ORIENTED_EDGE('',*,*,#271,.F.);
#390=ORIENTED_EDGE('',*,*,#274,.F.);
#391=ORIENTED_EDGE('',*,*,#277,.F.);
#392=ORIENTED_EDGE('',*,*,#280,.F.);
#393=ORIENTED_EDGE('',*,*,#227,.T.);
#394=ORIENTED_EDGE('',*,*,#230,.T.);
#395=ORIENTED_EDGE('',*,*,#233,.T.);
#396=ORIENTED_EDGE('',*,*,#260,.T.);
#397=ORIENTED_EDGE('',*,*,#246,.T.);
#398=ORIENTED_EDGE('',*,*,#249,.F.);
#399=ORIENTED_EDGE('',*,*,#252,.T.);
#400=ORIENTED_EDGE('',*,*,#255,.F.);
#401=ORIENTED_EDGE('',*,*,#256,.T.);
#402=ORIENTED_EDGE('',*,*,#236,.F.);
#403=ORIENTED_EDGE('',*,*,#240,.T.);
#404=ORIENTED_EDGE('',*,*,#243,.F.);
#405=CYLINDRICAL_SURFACE('',#441,0.600000000000005);
#406=CYLINDRICAL_SURFACE('',#444,0.600000000000005);
#407=CYLINDRICAL_SURFACE('',#447,0.600000000000005);
#408=CYLINDRICAL_SURFACE('',#450,1.5);
#409=CYLINDRICAL_SURFACE('',#454,1.5);
#410=CYLINDRICAL_SURFACE('',#458,1.5);
#411=CYLINDRICAL_SURFACE('',#462,1.5);
#412=CYLINDRICAL_SURFACE('',#466,4.6614822945271);
#413=CYLINDRICAL_SURFACE('',#469,4.);
#414=CYLINDRICAL_SURFACE('',#473,4.);
#415=CYLINDRICAL_SURFACE('',#477,6.49999999999999);
#416=CYLINDRICAL_SURFACE('',#481,6.49999999999999);
#417=ADVANCED_FACE('',(#35),#405,.F.);
#418=ADVANCED_FACE('',(#36),#406,.F.);
#419=ADVANCED_FACE('',(#37),#407,.F.);
#420=ADVANCED_FACE('',(#38),#408,.F.);
#421=ADVANCED_FACE('',(#39),#25,.F.);
#422=ADVANCED_FACE('',(#40),#409,.F.);
#423=ADVANCED_FACE('',(#41),#26,.F.);
#424=ADVANCED_FACE('',(#42),#410,.F.);
#425=ADVANCED_FACE('',(#43),#27,.F.);
#426=ADVANCED_FACE('',(#44),#411,.F.);
#427=ADVANCED_FACE('',(#45),#28,.F.);
#428=ADVANCED_FACE('',(#46),#412,.F.);
#429=ADVANCED_FACE('',(#47),#413,.T.);
#430=ADVANCED_FACE('',(#48),#29,.T.);
#431=ADVANCED_FACE('',(#49),#414,.T.);
#432=ADVANCED_FACE('',(#50),#30,.T.);
#433=ADVANCED_FACE('',(#51),#415,.T.);
#434=ADVANCED_FACE('',(#52),#31,.T.);
#435=ADVANCED_FACE('',(#53),#416,.T.);
#436=ADVANCED_FACE('',(#54),#32,.T.);
#437=ADVANCED_FACE('',(#55,#15,#16,#17,#18,#19),#33,.T.);
#438=ADVANCED_FACE('',(#56,#20,#21,#22,#23,#24),#34,.F.);
#439=CLOSED_SHELL('',(#417,#418,#419,#420,#421,#422,#423,#424,#425,#426,
#427,#428,#429,#430,#431,#432,#433,#434,#435,#436,#437,#438));
#440=AXIS2_PLACEMENT_3D('',#617,#487,#488);
#441=AXIS2_PLACEMENT_3D('',#618,#489,#490);
#442=AXIS2_PLACEMENT_3D('',#620,#491,#492);
#443=AXIS2_PLACEMENT_3D('',#623,#494,#495);
#444=AXIS2_PLACEMENT_3D('',#624,#496,#497);
#445=AXIS2_PLACEMENT_3D('',#626,#498,#499);
#446=AXIS2_PLACEMENT_3D('',#629,#501,#502);
#447=AXIS2_PLACEMENT_3D('',#630,#503,#504);
#448=AXIS2_PLACEMENT_3D('',#632,#505,#506);
#449=AXIS2_PLACEMENT_3D('',#635,#508,#509);
#450=AXIS2_PLACEMENT_3D('',#636,#510,#511);
#451=AXIS2_PLACEMENT_3D('',#639,#512,#513);
#452=AXIS2_PLACEMENT_3D('',#643,#515,#516);
#453=AXIS2_PLACEMENT_3D('',#645,#518,#519);
#454=AXIS2_PLACEMENT_3D('',#651,#523,#524);
#455=AXIS2_PLACEMENT_3D('',#653,#525,#526);
#456=AXIS2_PLACEMENT_3D('',#656,#528,#529);
#457=AXIS2_PLACEMENT_3D('',#657,#530,#531);
#458=AXIS2_PLACEMENT_3D('',#663,#535,#536);
#459=AXIS2_PLACEMENT_3D('',#665,#537,#538);
#460=AXIS2_PLACEMENT_3D('',#668,#540,#541);
#461=AXIS2_PLACEMENT_3D('',#669,#542,#543);
#462=AXIS2_PLACEMENT_3D('',#675,#547,#548);
#463=AXIS2_PLACEMENT_3D('',#677,#549,#550);
#464=AXIS2_PLACEMENT_3D('',#680,#552,#553);
#465=AXIS2_PLACEMENT_3D('',#681,#554,#555);
#466=AXIS2_PLACEMENT_3D('',#684,#558,#559);
#467=AXIS2_PLACEMENT_3D('',#686,#560,#561);
#468=AXIS2_PLACEMENT_3D('',#689,#563,#564);
#469=AXIS2_PLACEMENT_3D('',#690,#565,#566);
#470=AXIS2_PLACEMENT_3D('',#693,#567,#568);
#471=AXIS2_PLACEMENT_3D('',#697,#570,#571);
#472=AXIS2_PLACEMENT_3D('',#699,#573,#574);
#473=AXIS2_PLACEMENT_3D('',#705,#578,#579);
#474=AXIS2_PLACEMENT_3D('',#707,#580,#581);
#475=AXIS2_PLACEMENT_3D('',#709,#582,#583);
#476=AXIS2_PLACEMENT_3D('',#711,#585,#586);
#477=AXIS2_PLACEMENT_3D('',#717,#590,#591);
#478=AXIS2_PLACEMENT_3D('',#719,#592,#593);
#479=AXIS2_PLACEMENT_3D('',#721,#594,#595);
#480=AXIS2_PLACEMENT_3D('',#723,#597,#598);
#481=AXIS2_PLACEMENT_3D('',#729,#602,#603);
#482=AXIS2_PLACEMENT_3D('',#731,#604,#605);
#483=AXIS2_PLACEMENT_3D('',#733,#606,#607);
#484=AXIS2_PLACEMENT_3D('',#735,#609,#610);
#485=AXIS2_PLACEMENT_3D('',#738,#613,#614);
#486=AXIS2_PLACEMENT_3D('',#739,#615,#616);
#487=DIRECTION('axis',(0.,0.,1.));
#488=DIRECTION('refdir',(1.,0.,0.));
#489=DIRECTION('center_axis',(0.,0.,-1.));
#490=DIRECTION('ref_axis',(-1.,0.,0.));
#491=DIRECTION('center_axis',(0.,0.,-1.));
#492=DIRECTION('ref_axis',(-1.,0.,0.));
#493=DIRECTION('',(0.,0.,-1.));
#494=DIRECTION('center_axis',(0.,0.,1.));
#495=DIRECTION('ref_axis',(-1.,0.,0.));
#496=DIRECTION('center_axis',(0.,0.,-1.));
#497=DIRECTION('ref_axis',(-1.,0.,0.));
#498=DIRECTION('center_axis',(0.,0.,-1.));
#499=DIRECTION('ref_axis',(-1.,0.,0.));
#500=DIRECTION('',(0.,0.,-1.));
#501=DIRECTION('center_axis',(0.,0.,1.));
#502=DIRECTION('ref_axis',(-1.,0.,0.));
#503=DIRECTION('center_axis',(0.,0.,-1.));
#504=DIRECTION('ref_axis',(-1.,0.,0.));
#505=DIRECTION('center_axis',(0.,0.,-1.));
#506=DIRECTION('ref_axis',(-1.,0.,0.));
#507=DIRECTION('',(0.,0.,-1.));
#508=DIRECTION('center_axis',(0.,0.,1.));
#509=DIRECTION('ref_axis',(-1.,0.,0.));
#510=DIRECTION('center_axis',(0.,0.,-1.));
#511=DIRECTION('ref_axis',(-0.707106781186522,-0.707106781186573,0.));
#512=DIRECTION('center_axis',(0.,0.,1.));
#513=DIRECTION('ref_axis',(-0.707106781186522,-0.707106781186573,0.));
#514=DIRECTION('',(0.,0.,-1.));
#515=DIRECTION('center_axis',(0.,0.,-1.));
#516=DIRECTION('ref_axis',(-0.707106781186522,-0.707106781186573,0.));
#517=DIRECTION('',(0.,0.,1.));
#518=DIRECTION('center_axis',(0.,-1.,0.));
#519=DIRECTION('ref_axis',(-1.,0.,0.));
#520=DIRECTION('',(-1.,0.,0.));
#521=DIRECTION('',(0.,0.,1.));
#522=DIRECTION('',(1.,0.,0.));
#523=DIRECTION('center_axis',(0.,0.,-1.));
#524=DIRECTION('ref_axis',(0.707106781186539,-0.707106781186556,0.));
#525=DIRECTION('center_axis',(0.,0.,1.));
#526=DIRECTION('ref_axis',(0.707106781186539,-0.707106781186556,0.));
#527=DIRECTION('',(0.,0.,-1.));
#528=DIRECTION('center_axis',(0.,0.,-1.));
#529=DIRECTION('ref_axis',(0.707106781186539,-0.707106781186556,0.));
#530=DIRECTION('center_axis',(1.,0.,0.));
#531=DIRECTION('ref_axis',(0.,-1.,0.));
#532=DIRECTION('',(0.,-1.,0.));
#533=DIRECTION('',(0.,0.,1.));
#534=DIRECTION('',(0.,1.,0.));
#535=DIRECTION('center_axis',(0.,0.,-1.));
#536=DIRECTION('ref_axis',(0.707106781186543,0.707106781186552,0.));
#537=DIRECTION('center_axis',(0.,0.,1.));
#538=DIRECTION('ref_axis',(0.707106781186543,0.707106781186552,0.));
#539=DIRECTION('',(0.,0.,-1.));
#540=DIRECTION('center_axis',(0.,0.,-1.));
#541=DIRECTION('ref_axis',(0.707106781186543,0.707106781186552,0.));
#542=DIRECTION('center_axis',(0.,1.,0.));
#543=DIRECTION('ref_axis',(1.,0.,0.));
#544=DIRECTION('',(1.,0.,0.));
#545=DIRECTION('',(0.,0.,1.));
#546=DIRECTION('',(-1.,0.,0.));
#547=DIRECTION('center_axis',(0.,0.,-1.));
#548=DIRECTION('ref_axis',(-0.707106781186543,0.707106781186552,0.));
#549=DIRECTION('center_axis',(0.,0.,1.));
#550=DIRECTION('ref_axis',(-0.707106781186543,0.707106781186552,0.));
#551=DIRECTION('',(0.,0.,-1.));
#552=DIRECTION('center_axis',(0.,0.,-1.));
#553=DIRECTION('ref_axis',(-0.707106781186543,0.707106781186552,0.));
#554=DIRECTION('center_axis',(-1.,0.,0.));
#555=DIRECTION('ref_axis',(0.,1.,0.));
#556=DIRECTION('',(0.,-1.,0.));
#557=DIRECTION('',(0.,1.,0.));
#558=DIRECTION('center_axis',(0.,0.,-1.));
#559=DIRECTION('ref_axis',(-1.,0.,0.));
#560=DIRECTION('center_axis',(0.,0.,-1.));
#561=DIRECTION('ref_axis',(-1.,0.,0.));
#562=DIRECTION('',(0.,0.,-1.));
#563=DIRECTION('center_axis',(0.,0.,1.));
#564=DIRECTION('ref_axis',(-1.,0.,0.));
#565=DIRECTION('center_axis',(0.,0.,1.));
#566=DIRECTION('ref_axis',(-1.,0.,0.));
#567=DIRECTION('center_axis',(0.,0.,1.));
#568=DIRECTION('ref_axis',(-1.,0.,0.));
#569=DIRECTION('',(0.,0.,1.));
#570=DIRECTION('center_axis',(0.,0.,1.));
#571=DIRECTION('ref_axis',(-1.,0.,0.));
#572=DIRECTION('',(0.,0.,1.));
#573=DIRECTION('center_axis',(-1.,0.,0.));
#574=DIRECTION('ref_axis',(0.,-1.,0.));
#575=DIRECTION('',(0.,-1.,0.));
#576=DIRECTION('',(0.,-1.,0.));
#577=DIRECTION('',(0.,0.,1.));
#578=DIRECTION('center_axis',(0.,0.,1.));
#579=DIRECTION('ref_axis',(0.,1.,0.));
#580=DIRECTION('center_axis',(0.,0.,1.));
#581=DIRECTION('ref_axis',(0.,1.,0.));
#582=DIRECTION('center_axis',(0.,0.,1.));
#583=DIRECTION('ref_axis',(0.,1.,0.));
#584=DIRECTION('',(0.,0.,1.));
#585=DIRECTION('center_axis',(1.90710643987634E-16,1.,0.));
#586=DIRECTION('ref_axis',(-1.,1.90710643987634E-16,0.));
#587=DIRECTION('',(-1.,1.90710643987634E-16,0.));
#588=DIRECTION('',(-1.,1.90710643987634E-16,0.));
#589=DIRECTION('',(0.,0.,1.));
#590=DIRECTION('center_axis',(0.,0.,1.));
#591=DIRECTION('ref_axis',(1.,0.,0.));
#592=DIRECTION('center_axis',(1.64477828313366E-48,0.,1.));
#593=DIRECTION('ref_axis',(1.,0.,-1.64477828313366E-48));
#594=DIRECTION('center_axis',(1.64477828313366E-48,0.,1.));
#595=DIRECTION('ref_axis',(1.,0.,-1.64477828313366E-48));
#596=DIRECTION('',(0.,0.,1.));
#597=DIRECTION('center_axis',(1.,0.,0.));
#598=DIRECTION('ref_axis',(0.,1.,-5.80894087210002E-49));
#599=DIRECTION('',(0.,1.,-5.80894087210002E-49));
#600=DIRECTION('',(0.,1.,-5.80894087210002E-49));
#601=DIRECTION('',(0.,0.,1.));
#602=DIRECTION('center_axis',(0.,0.,1.));
#603=DIRECTION('ref_axis',(0.,-1.,0.));
#604=DIRECTION('center_axis',(0.,0.,1.));
#605=DIRECTION('ref_axis',(0.,-1.,0.));
#606=DIRECTION('center_axis',(0.,0.,1.));
#607=DIRECTION('ref_axis',(0.,-1.,0.));
#608=DIRECTION('',(0.,0.,1.));
#609=DIRECTION('center_axis',(0.,-1.,0.));
#610=DIRECTION('ref_axis',(1.,0.,0.));
#611=DIRECTION('',(1.,0.,0.));
#612=DIRECTION('',(1.,0.,0.));
#613=DIRECTION('center_axis',(0.,0.,1.));
#614=DIRECTION('ref_axis',(-1.,0.,0.));
#615=DIRECTION('center_axis',(0.,0.,1.));
#616=DIRECTION('ref_axis',(-1.,0.,0.));
#617=CARTESIAN_POINT('',(0.,0.,0.));
#618=CARTESIAN_POINT('Origin',(151.204611821527,-77.2905055450097,9.89475454850132));
#619=CARTESIAN_POINT('',(151.804611821527,-77.2905055450097,9.89475454850132));
#620=CARTESIAN_POINT('Origin',(151.204611821527,-77.2905055450097,9.89475454850132));
#621=CARTESIAN_POINT('',(151.804611821527,-77.2905055450097,7.89475454850132));
#622=CARTESIAN_POINT('',(151.804611821527,-77.2905055450097,9.89475454850132));
#623=CARTESIAN_POINT('Origin',(151.204611821527,-77.2905055450097,7.89475454850132));
#624=CARTESIAN_POINT('Origin',(151.226846457454,-68.3782288565331,9.89475454850132));
#625=CARTESIAN_POINT('',(151.826846457454,-68.3782288565331,9.89475454850132));
#626=CARTESIAN_POINT('Origin',(151.226846457454,-68.3782288565331,9.89475454850132));
#627=CARTESIAN_POINT('',(151.826846457454,-68.3782288565331,7.89475454850132));
#628=CARTESIAN_POINT('',(151.826846457454,-68.3782288565331,9.89475454850132));
#629=CARTESIAN_POINT('Origin',(151.226846457454,-68.3782288565331,7.89475454850132));
#630=CARTESIAN_POINT('Origin',(151.158169456301,-61.3229314999458,9.89475454850132));
#631=CARTESIAN_POINT('',(151.758169456301,-61.3229314999458,9.89475454850132));
#632=CARTESIAN_POINT('Origin',(151.158169456301,-61.3229314999458,9.89475454850132));
#633=CARTESIAN_POINT('',(151.758169456301,-61.3229314999458,7.89475454850132));
#634=CARTESIAN_POINT('',(151.758169456301,-61.3229314999458,9.89475454850132));
#635=CARTESIAN_POINT('Origin',(151.158169456301,-61.3229314999458,7.89475454850132));
#636=CARTESIAN_POINT('Origin',(172.814035600789,-80.5000012218952,9.89475454850132));
#637=CARTESIAN_POINT('',(171.314035600789,-80.5000012218952,9.89475454850132));
#638=CARTESIAN_POINT('',(172.814035600789,-82.0000012218952,9.89475454850132));
#639=CARTESIAN_POINT('Origin',(172.814035600789,-80.5000012218952,9.89475454850132));
#640=CARTESIAN_POINT('',(172.814035600789,-82.0000012218952,7.89475454850132));
#641=CARTESIAN_POINT('',(172.814035600789,-82.0000012218952,9.89475454850132));
#642=CARTESIAN_POINT('',(171.314035600789,-80.5000012218952,7.89475454850132));
#643=CARTESIAN_POINT('Origin',(172.814035600789,-80.5000012218952,7.89475454850132));
#644=CARTESIAN_POINT('',(171.314035600789,-80.5000012218952,9.89475454850132));
#645=CARTESIAN_POINT('Origin',(199.000002965331,-82.0000012218952,9.89475454850132));
#646=CARTESIAN_POINT('',(197.500002965331,-82.0000012218952,9.89475454850132));
#647=CARTESIAN_POINT('',(188.891760754343,-82.0000012218952,9.89475454850132));
#648=CARTESIAN_POINT('',(197.500002965331,-82.0000012218952,7.89475454850132));
#649=CARTESIAN_POINT('',(197.500002965331,-82.0000012218952,9.89475454850132));
#650=CARTESIAN_POINT('',(188.891760754343,-82.0000012218952,7.89475454850132));
#651=CARTESIAN_POINT('Origin',(197.500002965331,-80.5000012218952,9.89475454850132));
#652=CARTESIAN_POINT('',(199.000002965331,-80.5000012218952,9.89475454850132));
#653=CARTESIAN_POINT('Origin',(197.500002965331,-80.5000012218952,9.89475454850132));
#654=CARTESIAN_POINT('',(199.000002965331,-80.5000012218952,7.89475454850132));
#655=CARTESIAN_POINT('',(199.000002965331,-80.5000012218952,9.89475454850132));
#656=CARTESIAN_POINT('Origin',(197.500002965331,-80.5000012218952,7.89475454850132));
#657=CARTESIAN_POINT('Origin',(199.000002965331,-61.7566535262979,9.89475454850132));
#658=CARTESIAN_POINT('',(199.000002965331,-63.2566535262979,9.89475454850132));
#659=CARTESIAN_POINT('',(199.000002965331,-66.4724312689736,9.89475454850132));
#660=CARTESIAN_POINT('',(199.000002965331,-63.2566535262979,7.89475454850132));
#661=CARTESIAN_POINT('',(199.000002965331,-63.2566535262979,9.89475454850132));
#662=CARTESIAN_POINT('',(199.000002965331,-66.4724312689736,7.89475454850132));
#663=CARTESIAN_POINT('Origin',(197.500002965331,-63.2566535262979,9.89475454850132));
#664=CARTESIAN_POINT('',(197.500002965331,-61.7566535262979,9.89475454850132));
#665=CARTESIAN_POINT('Origin',(197.500002965331,-63.2566535262979,9.89475454850132));
#666=CARTESIAN_POINT('',(197.500002965331,-61.7566535262979,7.89475454850132));
#667=CARTESIAN_POINT('',(197.500002965331,-61.7566535262979,9.89475454850132));
#668=CARTESIAN_POINT('Origin',(197.500002965331,-63.2566535262979,7.89475454850132));
#669=CARTESIAN_POINT('Origin',(171.314035600789,-61.7566535262979,9.89475454850132));
#670=CARTESIAN_POINT('',(172.814035600789,-61.7566535262979,9.89475454850132));
#671=CARTESIAN_POINT('',(175.048777072072,-61.7566535262979,9.89475454850132));
#672=CARTESIAN_POINT('',(172.814035600789,-61.7566535262979,7.89475454850132));
#673=CARTESIAN_POINT('',(172.814035600789,-61.7566535262979,9.89475454850132));
#674=CARTESIAN_POINT('',(175.048777072072,-61.7566535262979,7.89475454850132));
#675=CARTESIAN_POINT('Origin',(172.814035600789,-63.2566535262979,9.89475454850132));
#676=CARTESIAN_POINT('',(171.314035600789,-63.2566535262979,9.89475454850132));
#677=CARTESIAN_POINT('Origin',(172.814035600789,-63.2566535262979,9.89475454850132));
#678=CARTESIAN_POINT('',(171.314035600789,-63.2566535262979,7.89475454850132));
#679=CARTESIAN_POINT('',(171.314035600789,-63.2566535262979,9.89475454850132));
#680=CARTESIAN_POINT('Origin',(172.814035600789,-63.2566535262979,7.89475454850132));
#681=CARTESIAN_POINT('Origin',(171.314035600789,-82.0000012218952,9.89475454850132));
#682=CARTESIAN_POINT('',(171.314035600789,-76.5941051167722,7.89475454850132));
#683=CARTESIAN_POINT('',(171.314035600789,-76.5941051167722,9.89475454850132));
#684=CARTESIAN_POINT('Origin',(162.684284889691,-70.7235038745486,9.89475454850132));
#685=CARTESIAN_POINT('',(167.345767184218,-70.7235038745486,9.89475454850132));
#686=CARTESIAN_POINT('Origin',(162.684284889691,-70.7235038745486,9.89475454850132));
#687=CARTESIAN_POINT('',(167.345767184218,-70.7235038745486,7.89475454850132));
#688=CARTESIAN_POINT('',(167.345767184218,-70.7235038745486,9.89475454850132));
#689=CARTESIAN_POINT('Origin',(162.684284889691,-70.7235038745486,7.89475454850132));
#690=CARTESIAN_POINT('Origin',(154.247497345772,-82.8904535134974,7.89475454850132));
#691=CARTESIAN_POINT('',(150.247497345772,-82.8904535134974,7.89475454850132));
#692=CARTESIAN_POINT('',(154.247497345772,-86.8904535134975,7.89475454850132));
#693=CARTESIAN_POINT('Origin',(154.247497345772,-82.8904535134974,7.89475454850132));
#694=CARTESIAN_POINT('',(154.247497345772,-86.8904535134975,9.89475454850132));
#695=CARTESIAN_POINT('',(154.247497345772,-86.8904535134975,7.89475454850132));
#696=CARTESIAN_POINT('',(150.247497345772,-82.8904535134974,9.89475454850132));
#697=CARTESIAN_POINT('Origin',(154.247497345772,-82.8904535134974,9.89475454850132));
#698=CARTESIAN_POINT('',(150.247497345772,-82.8904535134974,7.89475454850132));
#699=CARTESIAN_POINT('Origin',(150.247497345772,-59.485964509801,7.89475454850132));
#700=CARTESIAN_POINT('',(150.247497345772,-59.485964509801,7.89475454850132));
#701=CARTESIAN_POINT('',(150.247497345772,-59.485964509801,7.89475454850132));
#702=CARTESIAN_POINT('',(150.247497345772,-59.485964509801,9.89475454850132));
#703=CARTESIAN_POINT('',(150.247497345772,-59.485964509801,9.89475454850132));
#704=CARTESIAN_POINT('',(150.247497345772,-59.485964509801,7.89475454850132));
#705=CARTESIAN_POINT('Origin',(154.247497345772,-59.485964509801,7.89475454850132));
#706=CARTESIAN_POINT('',(154.247497345772,-55.485964509801,7.89475454850132));
#707=CARTESIAN_POINT('Origin',(154.247497345772,-59.485964509801,7.89475454850132));
#708=CARTESIAN_POINT('',(154.247497345772,-55.485964509801,9.89475454850132));
#709=CARTESIAN_POINT('Origin',(154.247497345772,-59.485964509801,9.89475454850132));
#710=CARTESIAN_POINT('',(154.247497345772,-55.485964509801,7.89475454850132));
#711=CARTESIAN_POINT('Origin',(200.819539740937,-55.485964509801,7.89475454850132));
#712=CARTESIAN_POINT('',(200.819539740937,-55.485964509801,7.89475454850132));
#713=CARTESIAN_POINT('',(200.819539740937,-55.485964509801,7.89475454850132));
#714=CARTESIAN_POINT('',(200.819539740937,-55.485964509801,9.89475454850132));
#715=CARTESIAN_POINT('',(200.819539740937,-55.485964509801,9.89475454850132));
#716=CARTESIAN_POINT('',(200.819539740937,-55.485964509801,7.89475454850132));
#717=CARTESIAN_POINT('Origin',(200.819539740937,-61.985964509801,7.89475454850132));
#718=CARTESIAN_POINT('',(207.319539740937,-61.985964509801,7.89475454850132));
#719=CARTESIAN_POINT('Origin',(200.819539740937,-61.985964509801,7.89475454850132));
#720=CARTESIAN_POINT('',(207.319539740937,-61.985964509801,9.89475454850132));
#721=CARTESIAN_POINT('Origin',(200.819539740937,-61.985964509801,9.89475454850132));
#722=CARTESIAN_POINT('',(207.319539740937,-61.985964509801,7.89475454850132));
#723=CARTESIAN_POINT('Origin',(207.319539740937,-80.3904535134975,7.89475454850132));
#724=CARTESIAN_POINT('',(207.319539740937,-80.3904535134975,7.89475454850132));
#725=CARTESIAN_POINT('',(207.319539740937,-80.3904535134975,7.89475454850132));
#726=CARTESIAN_POINT('',(207.319539740937,-80.3904535134975,9.89475454850132));
#727=CARTESIAN_POINT('',(207.319539740937,-80.3904535134975,9.89475454850132));
#728=CARTESIAN_POINT('',(207.319539740937,-80.3904535134975,7.89475454850132));
#729=CARTESIAN_POINT('Origin',(200.819539740937,-80.3904535134975,7.89475454850132));
#730=CARTESIAN_POINT('',(200.819539740937,-86.8904535134975,7.89475454850132));
#731=CARTESIAN_POINT('Origin',(200.819539740937,-80.3904535134975,7.89475454850132));
#732=CARTESIAN_POINT('',(200.819539740937,-86.8904535134975,9.89475454850132));
#733=CARTESIAN_POINT('Origin',(200.819539740937,-80.3904535134975,9.89475454850132));
#734=CARTESIAN_POINT('',(200.819539740937,-86.8904535134975,7.89475454850132));
#735=CARTESIAN_POINT('Origin',(154.247497345772,-86.8904535134975,7.89475454850132));
#736=CARTESIAN_POINT('',(154.247497345772,-86.8904535134975,7.89475454850132));
#737=CARTESIAN_POINT('',(154.247497345772,-86.8904535134975,9.89475454850132));
#738=CARTESIAN_POINT('Origin',(178.783518543354,-71.1882090116492,9.89475454850132));
#739=CARTESIAN_POINT('Origin',(178.783518543354,-71.1882090116492,7.89475454850132));
#740=UNCERTAINTY_MEASURE_WITH_UNIT(LENGTH_MEASURE(0.01),#744,
'DISTANCE_ACCURACY_VALUE',
'Maximum model space distance between geometric entities at asserted c
onnectivities');
#741=UNCERTAINTY_MEASURE_WITH_UNIT(LENGTH_MEASURE(0.01),#744,
'DISTANCE_ACCURACY_VALUE',
'Maximum model space distance between geometric entities at asserted c
onnectivities');
#742=(
GEOMETRIC_REPRESENTATION_CONTEXT(3)
GLOBAL_UNCERTAINTY_ASSIGNED_CONTEXT((#740))
GLOBAL_UNIT_ASSIGNED_CONTEXT((#744,#745,#746))
REPRESENTATION_CONTEXT('','3D')
);
#743=(
GEOMETRIC_REPRESENTATION_CONTEXT(3)
GLOBAL_UNCERTAINTY_ASSIGNED_CONTEXT((#741))
GLOBAL_UNIT_ASSIGNED_CONTEXT((#744,#745,#746))
REPRESENTATION_CONTEXT('','3D')
);
#744=(
LENGTH_UNIT()
NAMED_UNIT(*)
SI_UNIT(.MILLI.,.METRE.)
);
#745=(
NAMED_UNIT(*)
PLANE_ANGLE_UNIT()
SI_UNIT($,.RADIAN.)
);
#746=(
NAMED_UNIT(*)
SI_UNIT($,.STERADIAN.)
SOLID_ANGLE_UNIT()
);
#747=SHAPE_DEFINITION_REPRESENTATION(#748,#749);
#748=PRODUCT_DEFINITION_SHAPE('',$,#751);
#749=SHAPE_REPRESENTATION('',(#440),#742);
#750=PRODUCT_DEFINITION_CONTEXT('part definition',#755,'design');
#751=PRODUCT_DEFINITION('Mini pocket thing pcb','Mini pocket thing pcb',
#752,#750);
#752=PRODUCT_DEFINITION_FORMATION('',$,#757);
#753=PRODUCT_RELATED_PRODUCT_CATEGORY('Mini pocket thing pcb',
'Mini pocket thing pcb',(#757));
#754=APPLICATION_PROTOCOL_DEFINITION('international standard',
'automotive_design',2009,#755);
#755=APPLICATION_CONTEXT(
'Core Data for Automotive Mechanical Design Process');
#756=PRODUCT_CONTEXT('part definition',#755,'mechanical');
#757=PRODUCT('Mini pocket thing pcb','Mini pocket thing pcb',$,(#756));
#758=PRESENTATION_STYLE_ASSIGNMENT((#760));
#759=PRESENTATION_STYLE_ASSIGNMENT((#761));
#760=SURFACE_STYLE_USAGE(.BOTH.,#762);
#761=SURFACE_STYLE_USAGE(.BOTH.,#763);
#762=SURFACE_SIDE_STYLE('',(#764));
#763=SURFACE_SIDE_STYLE('',(#765));
#764=SURFACE_STYLE_FILL_AREA(#766);
#765=SURFACE_STYLE_FILL_AREA(#767);
#766=FILL_AREA_STYLE('Steel - Satin',(#768));
#767=FILL_AREA_STYLE('Brass - Polished',(#769));
#768=FILL_AREA_STYLE_COLOUR('Steel - Satin',#770);
#769=FILL_AREA_STYLE_COLOUR('Brass - Polished',#771);
#770=COLOUR_RGB('Steel - Satin',0.627450980392157,0.627450980392157,0.627450980392157);
#771=COLOUR_RGB('Brass - Polished',0.952941176470588,0.796078431372549,
0.486274509803922);
ENDSEC;
END-ISO-10303-21;
